<svg width="2777" height="303" viewBox="0 0 2777 303" fill="none" xmlns="http://www.w3.org/2000/svg">
<g clip-path="url(#clip0_638_4421)">
<path d="M230 27.6842H19.9999C9.6082 27.6842 1.18408 36.1083 1.18408 46.5V256.5C1.18408 266.892 9.6082 275.316 19.9999 275.316H230C240.392 275.316 248.816 266.892 248.816 256.5V46.5C248.816 36.1083 240.392 27.6842 230 27.6842Z" fill="#09021A" stroke="url(#paint0_linear_638_4421)" stroke-width="2.36842"/>
<path fill-rule="evenodd" clip-rule="evenodd" d="M81.6248 80.7283H89.7766L125.922 166.164L160.425 80.7283H168.578H206.619L206.62 222.026H168.578V174.925L149.556 222.026H103.363L81.6248 170.645V222.026H43.583V80.7283H81.6248Z" fill="white" fill-opacity="0.08"/>
<path d="M125 258.895C184.313 258.895 232.395 210.813 232.395 151.5C232.395 92.1874 184.313 44.105 125 44.105C65.6874 44.105 17.605 92.1874 17.605 151.5C17.605 210.813 65.6874 258.895 125 258.895Z" stroke="#272135"/>
<mask id="mask0_638_4421" style="mask-type:luminance" maskUnits="userSpaceOnUse" x="2" y="28" width="246" height="246">
<path d="M247.106 28.8684H2.63184V273.868H247.106V28.8684Z" fill="white"/>
</mask>
<g mask="url(#mask0_638_4421)">
<path d="M67.895 0.973633C67.895 7.16743 67.895 203.905 67.895 301.5" stroke="#272135"/>
<path d="M182.632 0.973633C182.632 7.16743 182.632 203.905 182.632 301.5" stroke="#272135"/>
<path d="M-23.4209 101.763H273.421" stroke="#272135"/>
<path d="M-24.9995 200.974H271.843" stroke="#272135"/>
<path d="M183.948 0.447388L68.6846 302.29" stroke="#272135"/>
<path d="M66.5791 0.447388L182.632 302.29" stroke="#272135"/>
<path d="M66.5791 0.447388L182.632 302.29" stroke="#272135"/>
<path d="M28.6846 0.447388L146.842 301.237" stroke="#272135"/>
<path d="M222.895 0.447388L104.737 301.237" stroke="#463868" stroke-width="0.263158"/>
</g>
<path d="M94.7091 101.762H67.9624V201.107H94.7091V101.762Z" fill="url(#paint1_linear_638_4421)"/>
<path d="M67.9624 101.762L105.4 101.762L143.785 201.107H107.769L67.9624 101.762Z" fill="url(#paint2_linear_638_4421)"/>
<path d="M182.592 101.762H155.845V201.107H182.592V101.762Z" fill="url(#paint3_linear_638_4421)"/>
<path d="M182.591 101.762H145.365L107.611 201.107L143.627 201.035L182.591 101.762Z" fill="url(#paint4_linear_638_4421)"/>
</g>
<path d="M365.803 60.1818H413.21L463.281 182.341H465.412L515.483 60.1818H562.891V242H525.604V123.658H524.094L477.042 241.112H451.651L404.599 123.214H403.089V242H365.803V60.1818ZM593.852 242V105.636H631.672V242H593.852ZM612.851 88.0582C607.228 88.0582 602.404 86.1939 598.38 82.4652C594.414 78.6773 592.432 74.1496 592.432 68.8821C592.432 63.6738 594.414 59.2053 598.38 55.4766C602.404 51.6887 607.228 49.7947 612.851 49.7947C618.473 49.7947 623.267 51.6887 627.233 55.4766C631.257 59.2053 633.27 63.6738 633.27 68.8821C633.27 74.1496 631.257 78.6773 627.233 82.4652C623.267 86.1939 618.473 88.0582 612.851 88.0582ZM775.426 144.521L740.803 146.652C740.211 143.693 738.938 141.029 736.985 138.662C735.032 136.235 732.457 134.312 729.261 132.891C726.125 131.412 722.366 130.672 717.987 130.672C712.127 130.672 707.185 131.915 703.161 134.401C699.136 136.827 697.124 140.082 697.124 144.166C697.124 147.421 698.426 150.174 701.03 152.423C703.634 154.672 708.103 156.477 714.435 157.838L739.116 162.81C752.373 165.532 762.257 169.912 768.768 175.949C775.278 181.986 778.533 189.917 778.533 199.741C778.533 208.679 775.9 216.521 770.632 223.268C765.424 230.015 758.262 235.282 749.148 239.07C740.092 242.799 729.646 244.663 717.809 244.663C699.757 244.663 685.375 240.905 674.663 233.388C664.009 225.813 657.765 215.514 655.93 202.494L693.129 200.54C694.253 206.045 696.976 210.247 701.296 213.147C705.617 215.988 711.151 217.408 717.898 217.408C724.527 217.408 729.853 216.136 733.878 213.591C737.962 210.987 740.033 207.643 740.092 203.559C740.033 200.126 738.583 197.315 735.742 195.125C732.901 192.876 728.522 191.16 722.603 189.976L698.988 185.271C685.671 182.607 675.758 177.991 669.247 171.421C662.796 164.852 659.57 156.477 659.57 146.297C659.57 137.537 661.938 129.991 666.673 123.658C671.467 117.326 678.184 112.443 686.825 109.01C695.526 105.577 705.705 103.861 717.365 103.861C734.588 103.861 748.142 107.501 758.026 114.781C767.969 122.06 773.769 131.974 775.426 144.521ZM915.807 144.521L881.183 146.652C880.592 143.693 879.319 141.029 877.366 138.662C875.413 136.235 872.838 134.312 869.642 132.891C866.505 131.412 862.747 130.672 858.367 130.672C852.508 130.672 847.566 131.915 843.541 134.401C839.517 136.827 837.504 140.082 837.504 144.166C837.504 147.421 838.807 150.174 841.411 152.423C844.015 154.672 848.483 156.477 854.816 157.838L879.497 162.81C892.754 165.532 902.638 169.912 909.149 175.949C915.659 181.986 918.914 189.917 918.914 199.741C918.914 208.679 916.28 216.521 911.013 223.268C905.805 230.015 898.643 235.282 889.529 239.07C880.473 242.799 870.027 244.663 858.19 244.663C840.138 244.663 825.756 240.905 815.044 233.388C804.39 225.813 798.146 215.514 796.311 202.494L833.509 200.54C834.634 206.045 837.356 210.247 841.677 213.147C845.998 215.988 851.531 217.408 858.279 217.408C864.907 217.408 870.234 216.136 874.259 213.591C878.343 210.987 880.414 207.643 880.473 203.559C880.414 200.126 878.964 197.315 876.123 195.125C873.282 192.876 868.902 191.16 862.984 189.976L839.369 185.271C826.052 182.607 816.138 177.991 809.628 171.421C803.177 164.852 799.951 156.477 799.951 146.297C799.951 137.537 802.319 129.991 807.053 123.658C811.847 117.326 818.565 112.443 827.206 109.01C835.906 105.577 846.086 103.861 857.746 103.861C874.969 103.861 888.522 107.501 898.406 114.781C908.35 122.06 914.15 131.974 915.807 144.521ZM942.729 242V105.636H980.549V242H942.729ZM961.728 88.0582C956.105 88.0582 951.281 86.1939 947.257 82.4652C943.291 78.6773 941.309 74.1496 941.309 68.8821C941.309 63.6738 943.291 59.2053 947.257 55.4766C951.281 51.6887 956.105 49.7947 961.728 49.7947C967.35 49.7947 972.144 51.6887 976.11 55.4766C980.134 59.2053 982.147 63.6738 982.147 68.8821C982.147 74.1496 980.134 78.6773 976.11 82.4652C972.144 86.1939 967.35 88.0582 961.728 88.0582ZM1072.46 244.663C1058.67 244.663 1046.74 241.734 1036.68 235.874C1026.68 229.956 1018.95 221.729 1013.51 211.194C1008.06 200.6 1005.34 188.319 1005.34 174.351C1005.34 160.265 1008.06 147.954 1013.51 137.419C1018.95 126.825 1026.68 118.598 1036.68 112.739C1046.74 106.82 1058.67 103.861 1072.46 103.861C1086.25 103.861 1098.14 106.82 1108.15 112.739C1118.21 118.598 1125.96 126.825 1131.41 137.419C1136.85 147.954 1139.57 160.265 1139.57 174.351C1139.57 188.319 1136.85 200.6 1131.41 211.194C1125.96 221.729 1118.21 229.956 1108.15 235.874C1098.14 241.734 1086.25 244.663 1072.46 244.663ZM1072.63 215.366C1078.91 215.366 1084.15 213.591 1088.35 210.04C1092.55 206.429 1095.72 201.517 1097.85 195.303C1100.04 189.088 1101.13 182.015 1101.13 174.085C1101.13 166.154 1100.04 159.081 1097.85 152.866C1095.72 146.652 1092.55 141.74 1088.35 138.129C1084.15 134.519 1078.91 132.714 1072.63 132.714C1066.3 132.714 1060.97 134.519 1056.65 138.129C1052.39 141.74 1049.17 146.652 1046.98 152.866C1044.85 159.081 1043.78 166.154 1043.78 174.085C1043.78 182.015 1044.85 189.088 1046.98 195.303C1049.17 201.517 1052.39 206.429 1056.65 210.04C1060.97 213.591 1066.3 215.366 1072.63 215.366Z" fill="black"/>
<path d="M1245.93 242H1203.32V96.5455H1248.49C1262.36 96.5455 1274.22 99.4337 1284.07 105.21C1293.97 110.987 1301.54 119.273 1306.8 130.068C1312.05 140.864 1314.68 153.813 1314.68 168.918C1314.68 184.164 1311.98 197.256 1306.59 208.193C1301.23 219.083 1293.42 227.44 1283.15 233.264C1272.92 239.088 1260.52 242 1245.93 242ZM1216.6 230.068H1245.15C1257.65 230.068 1268.11 227.606 1276.54 222.682C1284.97 217.758 1291.29 210.726 1295.51 201.588C1299.72 192.45 1301.83 181.56 1301.83 168.918C1301.78 156.37 1299.7 145.575 1295.58 136.531C1291.5 127.488 1285.44 120.551 1277.39 115.722C1269.39 110.892 1259.5 108.477 1247.71 108.477H1216.6V230.068ZM1386.65 244.273C1377.22 244.273 1368.89 241.882 1361.65 237.099C1354.45 232.317 1348.81 225.712 1344.74 217.284C1340.67 208.809 1338.63 199.031 1338.63 187.952C1338.63 176.777 1340.67 166.953 1344.74 158.477C1348.81 149.955 1354.45 143.326 1361.65 138.591C1368.89 133.809 1377.22 131.418 1386.65 131.418C1396.07 131.418 1404.38 133.809 1411.57 138.591C1418.77 143.373 1424.41 150.002 1428.48 158.477C1432.6 166.953 1434.66 176.777 1434.66 187.952C1434.66 199.031 1432.62 208.809 1428.55 217.284C1424.48 225.712 1418.82 232.317 1411.57 237.099C1404.38 241.882 1396.07 244.273 1386.65 244.273ZM1386.65 232.696C1394.22 232.696 1400.64 230.66 1405.89 226.588C1411.15 222.516 1415.13 217.095 1417.82 210.324C1420.57 203.553 1421.94 196.096 1421.94 187.952C1421.94 179.808 1420.57 172.327 1417.82 165.509C1415.13 158.69 1411.15 153.222 1405.89 149.102C1400.64 144.983 1394.22 142.923 1386.65 142.923C1379.12 142.923 1372.7 144.983 1367.4 149.102C1362.14 153.222 1358.14 158.69 1355.4 165.509C1352.7 172.327 1351.35 179.808 1351.35 187.952C1351.35 196.096 1352.7 203.553 1355.4 210.324C1358.14 217.095 1362.14 222.516 1367.4 226.588C1372.65 230.66 1379.07 232.696 1386.65 232.696ZM1505.02 244.273C1495.27 244.273 1486.77 241.834 1479.53 236.957C1472.33 232.08 1466.74 225.404 1462.76 216.929C1458.79 208.454 1456.8 198.795 1456.8 187.952C1456.8 177.014 1458.81 167.284 1462.84 158.761C1466.91 150.239 1472.54 143.562 1479.74 138.733C1486.94 133.856 1495.29 131.418 1504.81 131.418C1512.1 131.418 1518.71 132.838 1524.62 135.679C1530.54 138.473 1535.42 142.426 1539.26 147.54C1543.14 152.606 1545.58 158.525 1546.57 165.295H1533.79C1532.46 159.14 1529.27 153.884 1524.2 149.528C1519.18 145.125 1512.79 142.923 1505.02 142.923C1498.06 142.923 1491.91 144.817 1486.56 148.605C1481.21 152.346 1477.02 157.578 1473.99 164.301C1471 170.977 1469.51 178.719 1469.51 187.526C1469.51 196.38 1470.98 204.216 1473.91 211.034C1476.85 217.805 1480.97 223.108 1486.27 226.943C1491.62 230.778 1497.87 232.696 1505.02 232.696C1509.85 232.696 1514.26 231.796 1518.23 229.997C1522.26 228.151 1525.62 225.546 1528.32 222.185C1531.06 218.823 1532.91 214.822 1533.86 210.182H1546.64C1545.7 216.763 1543.35 222.634 1539.61 227.795C1535.92 232.909 1531.11 236.934 1525.19 239.869C1519.32 242.805 1512.6 244.273 1505.02 244.273ZM1643.06 200.31V132.909H1655.7V242H1643.06V223.889H1642.06C1639.5 229.476 1635.46 234.14 1629.92 237.881C1624.38 241.574 1617.61 243.42 1609.6 243.42C1602.64 243.42 1596.46 241.905 1591.07 238.875C1585.67 235.797 1581.43 231.299 1578.35 225.381C1575.28 219.462 1573.74 212.194 1573.74 203.577V132.909H1586.38V202.795C1586.38 211.318 1588.89 218.184 1593.91 223.392C1598.93 228.553 1605.37 231.134 1613.23 231.134C1618.15 231.134 1622.88 229.95 1627.43 227.582C1631.98 225.215 1635.72 221.759 1638.65 217.213C1641.59 212.62 1643.06 206.986 1643.06 200.31ZM1689.17 242V132.909H1701.45V149.67H1702.59C1704.77 144.036 1708.39 139.609 1713.46 136.389C1718.57 133.122 1724.7 131.489 1731.85 131.489C1739.38 131.489 1745.56 133.264 1750.39 136.815C1755.27 140.319 1758.91 145.149 1761.33 151.304H1762.25C1764.71 145.243 1768.71 140.437 1774.25 136.886C1779.84 133.288 1786.61 131.489 1794.56 131.489C1804.7 131.489 1812.7 134.685 1818.57 141.077C1824.44 147.421 1827.38 156.702 1827.38 168.918V242H1814.74V168.918C1814.74 160.3 1812.53 153.837 1808.13 149.528C1803.73 145.22 1797.93 143.065 1790.73 143.065C1782.4 143.065 1775.98 145.622 1771.48 150.736C1766.98 155.849 1764.74 162.336 1764.74 170.196V242H1751.81V167.781C1751.81 160.395 1749.75 154.429 1745.63 149.884C1741.51 145.338 1735.71 143.065 1728.23 143.065C1723.21 143.065 1718.69 144.296 1714.66 146.759C1710.69 149.221 1707.54 152.653 1705.22 157.057C1702.95 161.413 1701.81 166.432 1701.81 172.114V242H1689.17ZM1904.95 244.273C1894.77 244.273 1885.96 241.905 1878.53 237.17C1871.1 232.388 1865.34 225.783 1861.27 217.355C1857.25 208.88 1855.24 199.126 1855.24 188.094C1855.24 177.109 1857.25 167.355 1861.27 158.832C1865.34 150.262 1870.96 143.562 1878.11 138.733C1885.3 133.856 1893.61 131.418 1903.03 131.418C1908.95 131.418 1914.66 132.507 1920.15 134.685C1925.64 136.815 1930.57 140.106 1934.92 144.557C1939.33 148.96 1942.81 154.524 1945.36 161.247C1947.92 167.923 1949.2 175.83 1949.2 184.969V191.219H1863.97V180.068H1936.27C1936.27 173.061 1934.85 166.763 1932.01 161.176C1929.22 155.542 1925.31 151.091 1920.29 147.824C1915.32 144.557 1909.57 142.923 1903.03 142.923C1896.12 142.923 1890.04 144.77 1884.78 148.463C1879.53 152.156 1875.41 157.033 1872.42 163.094C1869.49 169.154 1868 175.783 1867.95 182.98V189.656C1867.95 198.321 1869.44 205.897 1872.42 212.384C1875.45 218.823 1879.74 223.818 1885.28 227.369C1890.82 230.92 1897.38 232.696 1904.95 232.696C1910.11 232.696 1914.63 231.891 1918.52 230.281C1922.45 228.671 1925.74 226.517 1928.39 223.818C1931.09 221.072 1933.12 218.065 1934.5 214.798L1946.5 218.705C1944.84 223.297 1942.12 227.535 1938.33 231.418C1934.59 235.3 1929.9 238.425 1924.27 240.793C1918.68 243.113 1912.24 244.273 1904.95 244.273ZM1989.7 173.818V242H1977.06V132.909H1989.34V150.026H1990.48C1993.04 144.438 1997.01 139.964 2002.41 136.602C2007.86 133.193 2014.58 131.489 2022.58 131.489C2029.92 131.489 2036.36 133.027 2041.9 136.105C2047.49 139.135 2051.82 143.61 2054.9 149.528C2058.02 155.447 2059.59 162.715 2059.59 171.332V242H2046.94V172.114C2046.94 163.165 2044.43 156.086 2039.42 150.878C2034.44 145.67 2027.77 143.065 2019.39 143.065C2013.66 143.065 2008.57 144.296 2004.12 146.759C1999.67 149.221 1996.14 152.772 1993.53 157.412C1990.98 162.005 1989.7 167.473 1989.7 173.818ZM2135.85 132.909V143.918H2083.79V132.909H2135.85ZM2100.05 106.773H2112.76V213.52C2112.76 218.065 2113.55 221.64 2115.11 224.244C2116.67 226.801 2118.71 228.624 2121.22 229.713C2123.73 230.755 2126.4 231.276 2129.24 231.276C2130.9 231.276 2132.32 231.181 2133.5 230.991C2134.69 230.755 2135.73 230.518 2136.63 230.281L2139.33 241.716C2138.1 242.189 2136.58 242.616 2134.78 242.994C2132.98 243.42 2130.76 243.634 2128.11 243.634C2123.46 243.634 2118.99 242.616 2114.68 240.58C2110.42 238.544 2106.92 235.513 2104.17 231.489C2101.42 227.464 2100.05 222.469 2100.05 216.503V106.773ZM2195.03 244.486C2188.44 244.486 2182.43 243.207 2176.99 240.651C2171.54 238.046 2167.21 234.306 2163.99 229.429C2160.77 224.505 2159.16 218.539 2159.16 211.531C2159.16 206.134 2160.18 201.588 2162.21 197.895C2164.25 194.202 2167.14 191.171 2170.88 188.804C2174.62 186.437 2179.05 184.566 2184.16 183.193C2189.27 181.82 2194.91 180.755 2201.06 179.997C2207.17 179.24 2212.33 178.577 2216.55 178.009C2220.81 177.44 2224.05 176.541 2226.28 175.31C2228.5 174.079 2229.61 172.09 2229.61 169.344V166.787C2229.61 159.353 2227.39 153.506 2222.94 149.244C2218.53 144.936 2212.19 142.781 2203.9 142.781C2196.04 142.781 2189.63 144.509 2184.66 147.966C2179.73 151.422 2176.28 155.494 2174.29 160.182L2162.28 155.849C2164.75 149.884 2168.16 145.125 2172.51 141.574C2176.87 137.975 2181.75 135.395 2187.14 133.832C2192.54 132.223 2198.01 131.418 2203.55 131.418C2207.72 131.418 2212.05 131.962 2216.55 133.051C2221.09 134.14 2225.31 136.034 2229.19 138.733C2233.07 141.384 2236.22 145.101 2238.63 149.884C2241.05 154.618 2242.26 160.632 2242.26 167.923V242H2229.61V224.741H2228.83C2227.32 227.961 2225.07 231.086 2222.09 234.116C2219.1 237.147 2215.36 239.633 2210.86 241.574C2206.37 243.515 2201.09 244.486 2195.03 244.486ZM2196.73 232.909C2203.45 232.909 2209.28 231.418 2214.2 228.435C2219.13 225.452 2222.91 221.498 2225.57 216.574C2228.26 211.602 2229.61 206.134 2229.61 200.168V184.401C2228.67 185.3 2227.08 186.105 2224.86 186.815C2222.68 187.526 2220.14 188.165 2217.26 188.733C2214.42 189.254 2211.57 189.704 2208.73 190.082C2205.89 190.461 2203.34 190.793 2201.06 191.077C2194.91 191.834 2189.65 193.018 2185.3 194.628C2180.94 196.238 2177.6 198.463 2175.28 201.304C2172.96 204.098 2171.8 207.696 2171.8 212.099C2171.8 218.728 2174.17 223.866 2178.9 227.511C2183.64 231.11 2189.58 232.909 2196.73 232.909ZM2318.85 132.909V143.918H2266.79V132.909H2318.85ZM2283.06 106.773H2295.77V213.52C2295.77 218.065 2296.55 221.64 2298.12 224.244C2299.68 226.801 2301.71 228.624 2304.22 229.713C2306.73 230.755 2309.41 231.276 2312.25 231.276C2313.91 231.276 2315.33 231.181 2316.51 230.991C2317.69 230.755 2318.74 230.518 2319.64 230.281L2322.33 241.716C2321.1 242.189 2319.59 242.616 2317.79 242.994C2315.99 243.42 2313.76 243.634 2311.11 243.634C2306.47 243.634 2302 242.616 2297.69 240.58C2293.43 238.544 2289.92 235.513 2287.18 231.489C2284.43 227.464 2283.06 222.469 2283.06 216.503V106.773ZM2347.71 242V132.909H2360.42V242H2347.71ZM2354.17 114.159C2351.57 114.159 2349.34 113.283 2347.49 111.531C2345.65 109.732 2344.72 107.578 2344.72 105.068C2344.72 102.559 2345.65 100.428 2347.49 98.6761C2349.34 96.8769 2351.57 95.9773 2354.17 95.9773C2356.77 95.9773 2359 96.8769 2360.85 98.6761C2362.69 100.428 2363.62 102.559 2363.62 105.068C2363.62 107.578 2362.69 109.732 2360.85 111.531C2359 113.283 2356.77 114.159 2354.17 114.159ZM2436.25 244.273C2426.83 244.273 2418.5 241.882 2411.25 237.099C2404.06 232.317 2398.42 225.712 2394.35 217.284C2390.28 208.809 2388.24 199.031 2388.24 187.952C2388.24 176.777 2390.28 166.953 2394.35 158.477C2398.42 149.955 2404.06 143.326 2411.25 138.591C2418.5 133.809 2426.83 131.418 2436.25 131.418C2445.68 131.418 2453.99 133.809 2461.18 138.591C2468.38 143.373 2474.02 150.002 2478.09 158.477C2482.21 166.953 2484.27 176.777 2484.27 187.952C2484.27 199.031 2482.23 208.809 2478.16 217.284C2474.09 225.712 2468.43 232.317 2461.18 237.099C2453.99 241.882 2445.68 244.273 2436.25 244.273ZM2436.25 232.696C2443.83 232.696 2450.25 230.66 2455.5 226.588C2460.76 222.516 2464.74 217.095 2467.43 210.324C2470.18 203.553 2471.55 196.096 2471.55 187.952C2471.55 179.808 2470.18 172.327 2467.43 165.509C2464.74 158.69 2460.76 153.222 2455.5 149.102C2450.25 144.983 2443.83 142.923 2436.25 142.923C2428.73 142.923 2422.31 144.983 2417.01 149.102C2411.75 153.222 2407.75 158.69 2405 165.509C2402.31 172.327 2400.96 179.808 2400.96 187.952C2400.96 196.096 2402.31 203.553 2405 210.324C2407.75 217.095 2411.75 222.516 2417.01 226.588C2422.26 230.66 2428.68 232.696 2436.25 232.696ZM2524.66 173.818V242H2512.02V132.909H2524.31V150.026H2525.44C2528 144.438 2531.98 139.964 2537.37 136.602C2542.82 133.193 2549.54 131.489 2557.54 131.489C2564.88 131.489 2571.32 133.027 2576.86 136.105C2582.45 139.135 2586.78 143.61 2589.86 149.528C2592.98 155.447 2594.55 162.715 2594.55 171.332V242H2581.9V172.114C2581.9 163.165 2579.4 156.086 2574.38 150.878C2569.4 145.67 2562.73 143.065 2554.35 143.065C2548.62 143.065 2543.53 144.296 2539.08 146.759C2534.63 149.221 2531.1 152.772 2528.5 157.412C2525.94 162.005 2524.66 167.473 2524.66 173.818Z" fill="#7E697C"/>
<defs>
<linearGradient id="paint0_linear_638_4421" x1="125" y1="26.5" x2="125" y2="276.5" gradientUnits="userSpaceOnUse">
<stop stop-color="#8858FF"/>
<stop offset="1" stop-color="#CBB8FC"/>
</linearGradient>
<linearGradient id="paint1_linear_638_4421" x1="81.3358" y1="101.762" x2="81.3358" y2="201.107" gradientUnits="userSpaceOnUse">
<stop stop-color="#F7F4FF"/>
<stop offset="1" stop-color="#DED9E9"/>
</linearGradient>
<linearGradient id="paint2_linear_638_4421" x1="85.0005" y1="97.2075" x2="128.499" y2="205.196" gradientUnits="userSpaceOnUse">
<stop stop-color="#C99874"/>
<stop offset="1" stop-color="#323ED0"/>
</linearGradient>
<linearGradient id="paint3_linear_638_4421" x1="169.218" y1="101.762" x2="169.218" y2="201.107" gradientUnits="userSpaceOnUse">
<stop stop-color="#434EDE"/>
<stop offset="1" stop-color="#BB936F"/>
</linearGradient>
<linearGradient id="paint4_linear_638_4421" x1="166.648" y1="95.34" x2="121.751" y2="206.802" gradientUnits="userSpaceOnUse">
<stop stop-color="#F7F4FF"/>
<stop offset="1" stop-color="#DED9E9"/>
</linearGradient>
<clipPath id="clip0_638_4421">
<rect width="250" height="250" fill="white" transform="translate(0 26.5)"/>
</clipPath>
</defs>
</svg>
