<svg width="1200" height="800" viewBox="0 0 1200 800" fill="none" xmlns="http://www.w3.org/2000/svg">
<g clip-path="url(#clip0_206_1589)">
<rect width="1200" height="800" rx="15" fill="#09021A"/>
<g filter="url(#filter0_f_206_1589)">
<ellipse cx="600" cy="1030" rx="637" ry="174" fill="#3C2081"/>
</g>
<g filter="url(#filter1_f_206_1589)">
<ellipse cx="585" cy="1015" rx="398" ry="174" fill="url(#paint0_linear_206_1589)"/>
</g>
<path d="M201.949 415L220.109 362.2H233.389L251.549 415H240.589L226.909 370.6H226.429L212.829 415H201.949ZM211.229 404.52V397H243.469V404.52H211.229ZM258.572 415V362.2H268.812V415H258.572ZM276.55 398.2V389.24H298.31V398.2H276.55ZM305.725 426.52V389.88V373.24H314.765L314.365 386.52H314.925C315.565 383.16 316.525 380.44 317.805 378.36C319.085 376.227 320.659 374.653 322.525 373.64C324.445 372.627 326.632 372.12 329.085 372.12C332.285 372.12 335.059 372.947 337.405 374.6C339.805 376.2 341.645 378.627 342.925 381.88C344.259 385.08 344.925 389.107 344.925 393.96C344.925 398.973 344.232 403.133 342.845 406.44C341.512 409.693 339.645 412.12 337.245 413.72C334.899 415.32 332.232 416.12 329.245 416.12C326.632 416.12 324.339 415.533 322.365 414.36C320.445 413.187 318.872 411.48 317.645 409.24C316.419 406.947 315.592 404.147 315.165 400.84H314.365C314.685 402.813 314.952 404.707 315.165 406.52C315.379 408.333 315.539 410.067 315.645 411.72C315.805 413.32 315.885 414.84 315.885 416.28V426.52H305.725ZM325.725 407.56C327.645 407.56 329.272 407 330.605 405.88C331.939 404.707 332.952 403.133 333.645 401.16C334.339 399.133 334.685 396.813 334.685 394.2C334.685 391.64 334.339 389.373 333.645 387.4C333.005 385.373 332.019 383.8 330.685 382.68C329.352 381.507 327.699 380.92 325.725 380.92C324.232 380.92 322.872 381.267 321.645 381.96C320.419 382.6 319.379 383.507 318.525 384.68C317.672 385.853 317.005 387.213 316.525 388.76C316.099 390.253 315.885 391.88 315.885 393.64V394.36C315.885 395.64 316.019 396.92 316.285 398.2C316.552 399.427 316.952 400.627 317.485 401.8C318.019 402.92 318.685 403.907 319.485 404.76C320.285 405.613 321.192 406.307 322.205 406.84C323.272 407.32 324.445 407.56 325.725 407.56ZM372.413 416.12C368.519 416.12 365.026 415.32 361.933 413.72C358.893 412.067 356.493 409.613 354.733 406.36C352.973 403.107 352.093 399.027 352.093 394.12C352.093 389.16 352.973 385.053 354.733 381.8C356.546 378.547 358.973 376.12 362.013 374.52C365.106 372.92 368.573 372.12 372.413 372.12C376.413 372.12 379.933 372.947 382.973 374.6C386.013 376.2 388.386 378.653 390.093 381.96C391.853 385.213 392.733 389.293 392.733 394.2C392.733 399.213 391.826 403.347 390.013 406.6C388.253 409.8 385.826 412.2 382.733 413.8C379.693 415.347 376.253 416.12 372.413 416.12ZM372.653 408.28C374.199 408.28 375.586 407.987 376.813 407.4C378.039 406.813 379.053 405.933 379.853 404.76C380.706 403.587 381.346 402.173 381.773 400.52C382.253 398.813 382.493 396.893 382.493 394.76C382.493 392.467 382.253 390.44 381.773 388.68C381.293 386.867 380.599 385.347 379.693 384.12C378.839 382.84 377.773 381.88 376.493 381.24C375.213 380.6 373.773 380.28 372.173 380.28C370.626 380.28 369.239 380.6 368.013 381.24C366.839 381.827 365.826 382.733 364.973 383.96C364.119 385.133 363.453 386.573 362.973 388.28C362.546 389.987 362.333 391.907 362.333 394.04C362.333 396.28 362.546 398.28 362.973 400.04C363.453 401.8 364.146 403.293 365.053 404.52C365.959 405.747 367.026 406.68 368.253 407.32C369.533 407.96 370.999 408.28 372.653 408.28ZM407.456 415L396.736 373.24H407.456L414.176 406.36H414.656L421.776 373.24H433.136L439.936 406.36H440.336L447.536 373.24H457.776L446.896 415H433.536L427.456 384.12H427.056L420.736 415H407.456ZM482.157 416.12C478.531 416.12 475.411 415.587 472.797 414.52C470.237 413.4 468.131 411.88 466.477 409.96C464.824 407.987 463.597 405.72 462.797 403.16C462.051 400.6 461.677 397.8 461.677 394.76C461.677 391.72 462.051 388.84 462.797 386.12C463.597 383.4 464.797 381 466.397 378.92C468.051 376.787 470.104 375.133 472.557 373.96C475.064 372.733 478.024 372.12 481.437 372.12C484.691 372.12 487.517 372.68 489.917 373.8C492.371 374.92 494.344 376.52 495.837 378.6C497.384 380.627 498.424 383.053 498.957 385.88C499.544 388.653 499.624 391.72 499.197 395.08L467.997 395.56V389.56L491.597 389.16L489.917 392.6C490.131 390.04 489.944 387.853 489.357 386.04C488.824 384.227 487.891 382.84 486.557 381.88C485.277 380.867 483.571 380.36 481.437 380.36C479.144 380.36 477.251 380.947 475.757 382.12C474.317 383.293 473.251 384.92 472.557 387C471.864 389.08 471.517 391.533 471.517 394.36C471.517 399 472.424 402.493 474.237 404.84C476.051 407.133 478.744 408.28 482.317 408.28C484.024 408.28 485.437 408.04 486.557 407.56C487.677 407.08 488.557 406.413 489.197 405.56C489.891 404.707 490.344 403.773 490.557 402.76C490.824 401.693 490.931 400.627 490.877 399.56L500.237 400.12C500.344 402.147 500.077 404.12 499.437 406.04C498.797 407.907 497.757 409.613 496.317 411.16C494.877 412.653 492.984 413.853 490.637 414.76C488.291 415.667 485.464 416.12 482.157 416.12ZM508.019 415V393.72V373.24H516.979L516.419 391.24H517.059C517.432 386.6 518.099 382.893 519.059 380.12C520.072 377.347 521.326 375.347 522.819 374.12C524.366 372.893 526.099 372.28 528.019 372.28C528.926 372.28 529.832 372.413 530.739 372.68C531.699 372.893 532.632 373.24 533.539 373.72L532.979 384.76C531.966 384.227 530.979 383.827 530.019 383.56C529.059 383.293 528.126 383.16 527.219 383.16C525.299 383.16 523.646 383.827 522.259 385.16C520.926 386.44 519.886 388.307 519.139 390.76C518.446 393.213 518.099 396.2 518.099 399.72V415H508.019ZM558.304 416.12C554.677 416.12 551.557 415.587 548.944 414.52C546.384 413.4 544.277 411.88 542.624 409.96C540.971 407.987 539.744 405.72 538.944 403.16C538.197 400.6 537.824 397.8 537.824 394.76C537.824 391.72 538.197 388.84 538.944 386.12C539.744 383.4 540.944 381 542.544 378.92C544.197 376.787 546.251 375.133 548.704 373.96C551.211 372.733 554.171 372.12 557.584 372.12C560.837 372.12 563.664 372.68 566.064 373.8C568.517 374.92 570.491 376.52 571.984 378.6C573.531 380.627 574.571 383.053 575.104 385.88C575.691 388.653 575.771 391.72 575.344 395.08L544.144 395.56V389.56L567.744 389.16L566.064 392.6C566.277 390.04 566.091 387.853 565.504 386.04C564.971 384.227 564.037 382.84 562.704 381.88C561.424 380.867 559.717 380.36 557.584 380.36C555.291 380.36 553.397 380.947 551.904 382.12C550.464 383.293 549.397 384.92 548.704 387C548.011 389.08 547.664 391.533 547.664 394.36C547.664 399 548.571 402.493 550.384 404.84C552.197 407.133 554.891 408.28 558.464 408.28C560.171 408.28 561.584 408.04 562.704 407.56C563.824 407.08 564.704 406.413 565.344 405.56C566.037 404.707 566.491 403.773 566.704 402.76C566.971 401.693 567.077 400.627 567.024 399.56L576.384 400.12C576.491 402.147 576.224 404.12 575.584 406.04C574.944 407.907 573.904 409.613 572.464 411.16C571.024 412.653 569.131 413.853 566.784 414.76C564.437 415.667 561.611 416.12 558.304 416.12ZM599.442 416.12C596.456 416.12 593.736 415.32 591.282 413.72C588.829 412.12 586.856 409.693 585.362 406.44C583.922 403.133 583.202 398.92 583.202 393.8C583.202 389 583.869 385 585.202 381.8C586.536 378.6 588.402 376.2 590.802 374.6C593.202 372.947 595.976 372.12 599.122 372.12C601.736 372.12 604.002 372.68 605.922 373.8C607.896 374.92 609.496 376.653 610.722 379C611.949 381.347 612.802 384.307 613.282 387.88H614.002C613.736 385.693 613.469 383.667 613.202 381.8C612.936 379.933 612.749 378.2 612.642 376.6C612.536 374.947 612.482 373.4 612.482 371.96V359.8H622.642L622.562 398.44L622.642 415H613.602L614.002 401.4H613.362C612.722 404.707 611.789 407.453 610.562 409.64C609.336 411.773 607.789 413.4 605.922 414.52C604.109 415.587 601.949 416.12 599.442 416.12ZM602.482 407.8C604.082 407.8 605.496 407.427 606.722 406.68C607.949 405.933 608.989 404.92 609.842 403.64C610.696 402.36 611.336 400.947 611.762 399.4C612.242 397.8 612.482 396.173 612.482 394.52V393.96C612.482 392.733 612.322 391.48 612.002 390.2C611.736 388.92 611.336 387.72 610.802 386.6C610.269 385.48 609.602 384.493 608.802 383.64C608.002 382.733 607.069 382.04 606.002 381.56C604.989 381.027 603.842 380.76 602.562 380.76C600.696 380.76 599.069 381.347 597.682 382.52C596.296 383.693 595.256 385.32 594.562 387.4C593.869 389.427 593.522 391.773 593.522 394.44C593.522 397 593.869 399.293 594.562 401.32C595.256 403.347 596.269 404.947 597.602 406.12C598.936 407.24 600.562 407.8 602.482 407.8ZM709.728 415V373.24H719.888V415H709.728ZM714.768 369.08C712.742 369.08 711.195 368.653 710.128 367.8C709.115 366.947 708.608 365.72 708.608 364.12C708.608 362.467 709.142 361.213 710.208 360.36C711.275 359.507 712.795 359.08 714.768 359.08C716.795 359.08 718.315 359.533 719.328 360.44C720.395 361.293 720.928 362.52 720.928 364.12C720.928 365.72 720.395 366.947 719.328 367.8C718.315 368.653 716.795 369.08 714.768 369.08ZM729.247 415V393.24V373.24H738.047L737.487 391.64H738.207C738.527 386.893 739.3 383.107 740.527 380.28C741.754 377.453 743.38 375.4 745.407 374.12C747.487 372.787 749.94 372.12 752.767 372.12C754.687 372.12 756.394 372.44 757.887 373.08C759.38 373.667 760.66 374.52 761.727 375.64C762.847 376.76 763.754 378.12 764.447 379.72C765.194 381.32 765.727 383.133 766.047 385.16C766.42 387.187 766.607 389.373 766.607 391.72V415H756.447V393C756.447 391.72 756.367 390.387 756.207 389C756.1 387.613 755.807 386.333 755.327 385.16C754.9 383.933 754.207 382.947 753.247 382.2C752.34 381.453 751.06 381.08 749.407 381.08C747.327 381.08 745.54 381.8 744.047 383.24C742.554 384.68 741.407 386.92 740.607 389.96C739.807 393 739.407 396.92 739.407 401.72V415H729.247ZM792.925 416.12C790.205 416.12 787.671 415.827 785.325 415.24C783.031 414.707 781.031 413.827 779.325 412.6C777.618 411.373 776.311 409.747 775.405 407.72C774.551 405.64 774.231 403.16 774.445 400.28L783.405 399.48C783.405 401.667 783.805 403.427 784.605 404.76C785.405 406.093 786.525 407.053 787.965 407.64C789.458 408.227 791.218 408.52 793.245 408.52C795.645 408.52 797.565 408.12 799.005 407.32C800.498 406.52 801.245 405.32 801.245 403.72C801.245 402.6 800.898 401.72 800.205 401.08C799.565 400.44 798.525 399.907 797.085 399.48C795.698 399.053 793.911 398.6 791.725 398.12C789.271 397.533 787.005 396.947 784.925 396.36C782.845 395.773 781.031 395.027 779.485 394.12C777.938 393.213 776.738 392.067 775.885 390.68C775.085 389.24 774.685 387.453 774.685 385.32C774.685 382.6 775.405 380.253 776.845 378.28C778.338 376.307 780.365 374.787 782.925 373.72C785.538 372.653 788.578 372.12 792.045 372.12C795.191 372.12 798.098 372.627 800.765 373.64C803.485 374.653 805.618 376.28 807.165 378.52C808.711 380.76 809.325 383.693 809.005 387.32L800.205 388.28C800.365 386.413 800.071 384.84 799.325 383.56C798.631 382.28 797.591 381.347 796.205 380.76C794.871 380.12 793.298 379.8 791.485 379.8C789.245 379.8 787.458 380.253 786.125 381.16C784.845 382.013 784.205 383.16 784.205 384.6C784.205 385.773 784.605 386.733 785.405 387.48C786.205 388.173 787.351 388.733 788.845 389.16C790.391 389.533 792.231 389.96 794.365 390.44C796.178 390.76 798.045 391.187 799.965 391.72C801.938 392.253 803.751 393 805.405 393.96C807.058 394.867 808.391 396.093 809.405 397.64C810.418 399.187 810.925 401.16 810.925 403.56C810.925 406.12 810.205 408.333 808.765 410.2C807.378 412.067 805.351 413.533 802.685 414.6C800.018 415.613 796.765 416.12 792.925 416.12ZM818.597 415V373.24H828.757V415H818.597ZM823.637 369.08C821.61 369.08 820.064 368.653 818.997 367.8C817.984 366.947 817.477 365.72 817.477 364.12C817.477 362.467 818.01 361.213 819.077 360.36C820.144 359.507 821.664 359.08 823.637 359.08C825.664 359.08 827.184 359.533 828.197 360.44C829.264 361.293 829.797 362.52 829.797 364.12C829.797 365.72 829.264 366.947 828.197 367.8C827.184 368.653 825.664 369.08 823.637 369.08ZM854.596 427.4C849.903 427.4 846.196 427.027 843.476 426.28C840.809 425.533 838.889 424.52 837.716 423.24C836.596 421.96 836.036 420.493 836.036 418.84C836.036 416.547 836.969 414.68 838.836 413.24C840.703 411.747 843.503 410.707 847.236 410.12V409.56C844.303 409.56 842.063 409.16 840.516 408.36C839.023 407.507 838.276 406.307 838.276 404.76C838.276 403.32 838.969 402.04 840.356 400.92C841.796 399.8 844.196 399.08 847.556 398.76V398.04C844.356 397.453 841.903 396.173 840.196 394.2C838.489 392.173 837.636 389.667 837.636 386.68C837.636 384.013 838.356 381.667 839.796 379.64C841.236 377.613 843.289 376.04 845.956 374.92C848.623 373.8 851.769 373.24 855.396 373.24H876.276V381.4L862.116 379.56V380.28C866.169 380.92 868.943 382.013 870.436 383.56C871.983 385.053 872.756 386.867 872.756 389C872.756 391.08 872.143 392.973 870.916 394.68C869.689 396.333 867.823 397.64 865.316 398.6C862.863 399.507 859.769 399.96 856.036 399.96C854.969 399.96 853.929 399.933 852.916 399.88C851.903 399.773 850.969 399.613 850.116 399.4C848.569 399.933 847.449 400.493 846.756 401.08C846.116 401.613 845.796 402.12 845.796 402.6C845.796 402.92 845.983 403.187 846.356 403.4C846.729 403.56 847.209 403.667 847.796 403.72C848.436 403.773 849.103 403.8 849.796 403.8H862.516C863.476 403.8 864.783 403.853 866.436 403.96C868.089 404.067 869.743 404.44 871.396 405.08C873.103 405.72 874.516 406.76 875.636 408.2C876.809 409.64 877.396 411.693 877.396 414.36C877.396 417.347 876.569 419.773 874.916 421.64C873.263 423.56 870.756 425 867.396 425.96C864.036 426.92 859.769 427.4 854.596 427.4ZM854.356 418.44C858.196 418.44 861.129 418.253 863.156 417.88C865.183 417.56 866.569 417.08 867.316 416.44C868.063 415.8 868.436 415.053 868.436 414.2C868.436 413.24 868.169 412.493 867.636 411.96C867.156 411.427 866.489 411.053 865.636 410.84C864.836 410.573 863.983 410.44 863.076 410.44C862.223 410.387 861.449 410.36 860.756 410.36H850.196C848.009 411.16 846.489 411.907 845.636 412.6C844.783 413.24 844.356 414.04 844.356 415C844.356 416.013 844.783 416.76 845.636 417.24C846.489 417.72 847.663 418.04 849.156 418.2C850.649 418.36 852.383 418.44 854.356 418.44ZM855.636 393.96C857.929 393.96 859.743 393.347 861.076 392.12C862.409 390.84 863.076 389.133 863.076 387C863.076 384.813 862.383 383.053 860.996 381.72C859.609 380.387 857.769 379.72 855.476 379.72C853.129 379.72 851.263 380.413 849.876 381.8C848.489 383.133 847.796 384.84 847.796 386.92C847.796 388.307 848.116 389.533 848.756 390.6C849.396 391.667 850.303 392.493 851.476 393.08C852.649 393.667 854.036 393.96 855.636 393.96ZM884.666 415V394.84V359.8H894.826V370.6C894.826 371.613 894.746 373 894.586 374.76C894.479 376.467 894.319 378.36 894.106 380.44C893.893 382.52 893.653 384.6 893.386 386.68C893.173 388.707 892.986 390.547 892.826 392.2H893.546C894.026 387.507 894.879 383.693 896.106 380.76C897.333 377.773 898.986 375.587 901.066 374.2C903.199 372.813 905.733 372.12 908.666 372.12C910.586 372.12 912.266 372.44 913.706 373.08C915.199 373.667 916.453 374.547 917.466 375.72C918.533 376.893 919.386 378.28 920.026 379.88C920.719 381.48 921.226 383.293 921.546 385.32C921.866 387.347 922.026 389.56 922.026 391.96V415H911.866V393C911.866 391.827 911.813 390.547 911.706 389.16C911.653 387.773 911.413 386.493 910.986 385.32C910.613 384.093 909.973 383.107 909.066 382.36C908.159 381.56 906.906 381.16 905.306 381.16C903.226 381.16 901.386 381.933 899.786 383.48C898.239 384.973 897.013 387.24 896.106 390.28C895.253 393.32 894.826 397.107 894.826 401.64V415H884.666ZM945.873 415.88C943.099 415.88 940.833 415.453 939.073 414.6C937.366 413.693 936.033 412.547 935.073 411.16C934.166 409.72 933.553 408.2 933.233 406.6C932.913 404.947 932.753 403.373 932.753 401.88V381.32H927.873V374.52H929.073C931.633 374.253 933.446 373.453 934.513 372.12C935.633 370.733 936.299 368.68 936.513 365.96L936.673 363.96H942.833V373.24H953.073V381.56H942.833V401.08C942.833 403.267 943.339 404.787 944.353 405.64C945.366 406.493 946.619 406.92 948.113 406.92C948.913 406.92 949.766 406.813 950.673 406.6C951.579 406.333 952.379 405.96 953.073 405.48V414.68C951.686 415.107 950.406 415.4 949.233 415.56C948.059 415.773 946.939 415.88 945.873 415.88ZM978.018 416.12C975.298 416.12 972.765 415.827 970.418 415.24C968.125 414.707 966.125 413.827 964.418 412.6C962.712 411.373 961.405 409.747 960.498 407.72C959.645 405.64 959.325 403.16 959.538 400.28L968.498 399.48C968.498 401.667 968.898 403.427 969.698 404.76C970.498 406.093 971.618 407.053 973.058 407.64C974.552 408.227 976.312 408.52 978.338 408.52C980.738 408.52 982.658 408.12 984.098 407.32C985.592 406.52 986.338 405.32 986.338 403.72C986.338 402.6 985.992 401.72 985.298 401.08C984.658 400.44 983.618 399.907 982.178 399.48C980.792 399.053 979.005 398.6 976.818 398.12C974.365 397.533 972.098 396.947 970.018 396.36C967.938 395.773 966.125 395.027 964.578 394.12C963.032 393.213 961.832 392.067 960.978 390.68C960.178 389.24 959.778 387.453 959.778 385.32C959.778 382.6 960.498 380.253 961.938 378.28C963.432 376.307 965.458 374.787 968.018 373.72C970.632 372.653 973.672 372.12 977.138 372.12C980.285 372.12 983.192 372.627 985.858 373.64C988.578 374.653 990.712 376.28 992.258 378.52C993.805 380.76 994.418 383.693 994.098 387.32L985.298 388.28C985.458 386.413 985.165 384.84 984.418 383.56C983.725 382.28 982.685 381.347 981.298 380.76C979.965 380.12 978.392 379.8 976.578 379.8C974.338 379.8 972.552 380.253 971.218 381.16C969.938 382.013 969.298 383.16 969.298 384.6C969.298 385.773 969.698 386.733 970.498 387.48C971.298 388.173 972.445 388.733 973.938 389.16C975.485 389.533 977.325 389.96 979.458 390.44C981.272 390.76 983.138 391.187 985.058 391.72C987.032 392.253 988.845 393 990.498 393.96C992.152 394.867 993.485 396.093 994.498 397.64C995.512 399.187 996.018 401.16 996.018 403.56C996.018 406.12 995.298 408.333 993.858 410.2C992.472 412.067 990.445 413.533 987.778 414.6C985.112 415.613 981.858 416.12 978.018 416.12Z" fill="url(#paint1_linear_206_1589)"/>
<path d="M272.63 500V472.96H266.39V465.52L278.15 466.32V465.68C275.43 465.253 273.297 464.507 271.75 463.44C270.257 462.373 269.19 461.12 268.55 459.68C267.964 458.24 267.67 456.8 267.67 455.36C267.67 453.067 268.23 451.067 269.35 449.36C270.524 447.6 272.15 446.24 274.23 445.28C276.364 444.267 278.817 443.76 281.59 443.76C283.777 443.76 285.777 444.107 287.59 444.8C289.457 445.44 291.11 446.427 292.55 447.76L291.51 457.2C290.07 455.92 288.657 455.013 287.27 454.48C285.884 453.893 284.497 453.6 283.11 453.6C281.244 453.6 279.777 454.08 278.71 455.04C277.644 456 277.11 457.28 277.11 458.88C277.11 460.053 277.404 461.093 277.99 462C278.577 462.907 279.404 463.627 280.47 464.16C281.537 464.693 282.844 464.96 284.39 464.96H292.07V472.96H282.63V500H272.63ZM317.894 501.12C314.001 501.12 310.507 500.32 307.414 498.72C304.374 497.067 301.974 494.613 300.214 491.36C298.454 488.107 297.574 484.027 297.574 479.12C297.574 474.16 298.454 470.053 300.214 466.8C302.027 463.547 304.454 461.12 307.494 459.52C310.587 457.92 314.054 457.12 317.894 457.12C321.894 457.12 325.414 457.947 328.454 459.6C331.494 461.2 333.867 463.653 335.574 466.96C337.334 470.213 338.214 474.293 338.214 479.2C338.214 484.213 337.307 488.347 335.494 491.6C333.734 494.8 331.307 497.2 328.214 498.8C325.174 500.347 321.734 501.12 317.894 501.12ZM318.134 493.28C319.681 493.28 321.067 492.987 322.294 492.4C323.521 491.813 324.534 490.933 325.334 489.76C326.187 488.587 326.827 487.173 327.254 485.52C327.734 483.813 327.974 481.893 327.974 479.76C327.974 477.467 327.734 475.44 327.254 473.68C326.774 471.867 326.081 470.347 325.174 469.12C324.321 467.84 323.254 466.88 321.974 466.24C320.694 465.6 319.254 465.28 317.654 465.28C316.107 465.28 314.721 465.6 313.494 466.24C312.321 466.827 311.307 467.733 310.454 468.96C309.601 470.133 308.934 471.573 308.454 473.28C308.027 474.987 307.814 476.907 307.814 479.04C307.814 481.28 308.027 483.28 308.454 485.04C308.934 486.8 309.627 488.293 310.534 489.52C311.441 490.747 312.507 491.68 313.734 492.32C315.014 492.96 316.481 493.28 318.134 493.28ZM346.416 500V478.72V458.24H355.376L354.816 476.24H355.456C355.829 471.6 356.496 467.893 357.456 465.12C358.469 462.347 359.723 460.347 361.216 459.12C362.763 457.893 364.496 457.28 366.416 457.28C367.323 457.28 368.229 457.413 369.136 457.68C370.096 457.893 371.029 458.24 371.936 458.72L371.376 469.76C370.363 469.227 369.376 468.827 368.416 468.56C367.456 468.293 366.523 468.16 365.616 468.16C363.696 468.16 362.043 468.827 360.656 470.16C359.323 471.44 358.283 473.307 357.536 475.76C356.843 478.213 356.496 481.2 356.496 484.72V500H346.416ZM476.184 501.12C472.664 501.12 469.597 500.587 466.984 499.52C464.424 498.4 462.291 496.853 460.584 494.88C458.931 492.907 457.677 490.613 456.824 488C456.024 485.333 455.624 482.48 455.624 479.44C455.624 476.4 456.024 473.547 456.824 470.88C457.677 468.16 458.931 465.76 460.584 463.68C462.237 461.6 464.317 460 466.824 458.88C469.384 457.707 472.397 457.12 475.864 457.12C478.957 457.12 481.624 457.573 483.864 458.48C486.104 459.387 487.917 460.64 489.304 462.24C490.744 463.787 491.757 465.547 492.344 467.52C492.984 469.493 493.171 471.573 492.904 473.76L484.024 474.56C484.077 472.533 483.757 470.827 483.064 469.44C482.371 468.053 481.384 467.013 480.104 466.32C478.877 465.627 477.437 465.28 475.784 465.28C474.397 465.28 473.091 465.547 471.864 466.08C470.691 466.56 469.651 467.36 468.744 468.48C467.837 469.547 467.117 470.933 466.584 472.64C466.104 474.347 465.864 476.453 465.864 478.96C465.864 482.16 466.291 484.827 467.144 486.96C468.051 489.093 469.277 490.693 470.824 491.76C472.424 492.773 474.264 493.28 476.344 493.28C478.584 493.28 480.344 492.773 481.624 491.76C482.904 490.747 483.784 489.44 484.264 487.84C484.797 486.24 484.984 484.587 484.824 482.88L494.264 483.44C494.477 485.84 494.264 488.107 493.624 490.24C492.984 492.373 491.891 494.267 490.344 495.92C488.851 497.52 486.931 498.8 484.584 499.76C482.237 500.667 479.437 501.12 476.184 501.12ZM521.01 501.12C517.116 501.12 513.623 500.32 510.53 498.72C507.49 497.067 505.09 494.613 503.33 491.36C501.57 488.107 500.69 484.027 500.69 479.12C500.69 474.16 501.57 470.053 503.33 466.8C505.143 463.547 507.57 461.12 510.61 459.52C513.703 457.92 517.17 457.12 521.01 457.12C525.01 457.12 528.53 457.947 531.57 459.6C534.61 461.2 536.983 463.653 538.69 466.96C540.45 470.213 541.33 474.293 541.33 479.2C541.33 484.213 540.423 488.347 538.61 491.6C536.85 494.8 534.423 497.2 531.33 498.8C528.29 500.347 524.85 501.12 521.01 501.12ZM521.25 493.28C522.796 493.28 524.183 492.987 525.41 492.4C526.636 491.813 527.65 490.933 528.45 489.76C529.303 488.587 529.943 487.173 530.37 485.52C530.85 483.813 531.09 481.893 531.09 479.76C531.09 477.467 530.85 475.44 530.37 473.68C529.89 471.867 529.196 470.347 528.29 469.12C527.436 467.84 526.37 466.88 525.09 466.24C523.81 465.6 522.37 465.28 520.77 465.28C519.223 465.28 517.836 465.6 516.61 466.24C515.436 466.827 514.423 467.733 513.57 468.96C512.716 470.133 512.05 471.573 511.57 473.28C511.143 474.987 510.93 476.907 510.93 479.04C510.93 481.28 511.143 483.28 511.57 485.04C512.05 486.8 512.743 488.293 513.65 489.52C514.556 490.747 515.623 491.68 516.85 492.32C518.13 492.96 519.596 493.28 521.25 493.28ZM549.612 500V479.04L549.532 458.24H558.412L557.772 476.64H558.492C558.865 471.893 559.612 468.107 560.732 465.28C561.852 462.4 563.345 460.32 565.212 459.04C567.078 457.76 569.292 457.12 571.852 457.12C573.772 457.12 575.452 457.467 576.892 458.16C578.332 458.853 579.532 459.973 580.492 461.52C581.452 463.067 582.145 465.093 582.572 467.6C582.998 470.053 583.158 473.067 583.052 476.64H583.772C584.092 471.893 584.838 468.107 586.012 465.28C587.238 462.4 588.812 460.32 590.732 459.04C592.705 457.76 594.998 457.12 597.612 457.12C599.478 457.12 601.132 457.44 602.572 458.08C604.012 458.667 605.238 459.547 606.252 460.72C607.265 461.84 608.065 463.227 608.652 464.88C609.292 466.533 609.772 468.373 610.092 470.4C610.412 472.427 610.572 474.613 610.572 476.96V500H600.412V478C600.412 476.933 600.358 475.733 600.252 474.4C600.198 473.067 599.958 471.787 599.532 470.56C599.158 469.28 598.572 468.24 597.772 467.44C596.972 466.587 595.852 466.16 594.412 466.16C592.545 466.16 590.892 466.933 589.452 468.48C588.065 470.027 586.972 472.267 586.172 475.2C585.372 478.133 584.972 481.707 584.972 485.92V500H575.052V477.84C575.052 476.827 574.998 475.653 574.892 474.32C574.838 472.987 574.625 471.707 574.252 470.48C573.878 469.253 573.292 468.24 572.492 467.44C571.692 466.587 570.545 466.16 569.052 466.16C567.238 466.16 565.638 466.88 564.252 468.32C562.865 469.707 561.745 471.867 560.892 474.8C560.092 477.733 559.692 481.44 559.692 485.92V500H549.612ZM619.599 500V479.04L619.519 458.24H628.399L627.759 476.64H628.479C628.852 471.893 629.599 468.107 630.719 465.28C631.839 462.4 633.332 460.32 635.199 459.04C637.066 457.76 639.279 457.12 641.839 457.12C643.759 457.12 645.439 457.467 646.879 458.16C648.319 458.853 649.519 459.973 650.479 461.52C651.439 463.067 652.132 465.093 652.559 467.6C652.986 470.053 653.146 473.067 653.039 476.64H653.759C654.079 471.893 654.826 468.107 655.999 465.28C657.226 462.4 658.799 460.32 660.719 459.04C662.692 457.76 664.986 457.12 667.599 457.12C669.466 457.12 671.119 457.44 672.559 458.08C673.999 458.667 675.226 459.547 676.239 460.72C677.252 461.84 678.052 463.227 678.639 464.88C679.279 466.533 679.759 468.373 680.079 470.4C680.399 472.427 680.559 474.613 680.559 476.96V500H670.399V478C670.399 476.933 670.346 475.733 670.239 474.4C670.186 473.067 669.946 471.787 669.519 470.56C669.146 469.28 668.559 468.24 667.759 467.44C666.959 466.587 665.839 466.16 664.399 466.16C662.532 466.16 660.879 466.933 659.439 468.48C658.052 470.027 656.959 472.267 656.159 475.2C655.359 478.133 654.959 481.707 654.959 485.92V500H645.039V477.84C645.039 476.827 644.986 475.653 644.879 474.32C644.826 472.987 644.612 471.707 644.239 470.48C643.866 469.253 643.279 468.24 642.479 467.44C641.679 466.587 640.532 466.16 639.039 466.16C637.226 466.16 635.626 466.88 634.239 468.32C632.852 469.707 631.732 471.867 630.879 474.8C630.079 477.733 629.679 481.44 629.679 485.92V500H619.599ZM702.867 501.12C700.84 501.12 699.053 500.8 697.507 500.16C696.013 499.52 694.733 498.613 693.667 497.44C692.6 496.213 691.72 494.72 691.027 492.96C690.333 491.2 689.827 489.2 689.507 486.96C689.24 484.72 689.107 482.24 689.107 479.52V458.24H699.267V478.72C699.267 480.267 699.293 481.84 699.347 483.44C699.453 484.987 699.693 486.427 700.067 487.76C700.493 489.04 701.16 490.08 702.067 490.88C703.027 491.68 704.36 492.08 706.067 492.08C707.667 492.08 709.08 491.707 710.307 490.96C711.533 490.16 712.573 488.987 713.427 487.44C714.28 485.84 714.92 483.867 715.347 481.52C715.773 479.12 715.987 476.293 715.987 473.04V458.24H726.147V479.92V500H717.267L717.827 482.96H717.267C716.84 487.333 716.013 490.853 714.787 493.52C713.613 496.133 712.013 498.053 709.987 499.28C708.013 500.507 705.64 501.12 702.867 501.12ZM735.51 500V478.24V458.24H744.31L743.75 476.64H744.47C744.79 471.893 745.563 468.107 746.79 465.28C748.016 462.453 749.643 460.4 751.67 459.12C753.75 457.787 756.203 457.12 759.03 457.12C760.95 457.12 762.656 457.44 764.15 458.08C765.643 458.667 766.923 459.52 767.99 460.64C769.11 461.76 770.016 463.12 770.71 464.72C771.456 466.32 771.99 468.133 772.31 470.16C772.683 472.187 772.87 474.373 772.87 476.72V500H762.71V478C762.71 476.72 762.63 475.387 762.47 474C762.363 472.613 762.07 471.333 761.59 470.16C761.163 468.933 760.47 467.947 759.51 467.2C758.603 466.453 757.323 466.08 755.67 466.08C753.59 466.08 751.803 466.8 750.31 468.24C748.816 469.68 747.67 471.92 746.87 474.96C746.07 478 745.67 481.92 745.67 486.72V500H735.51ZM781.747 500V458.24H791.907V500H781.747ZM786.787 454.08C784.761 454.08 783.214 453.653 782.147 452.8C781.134 451.947 780.627 450.72 780.627 449.12C780.627 447.467 781.161 446.213 782.227 445.36C783.294 444.507 784.814 444.08 786.787 444.08C788.814 444.08 790.334 444.533 791.347 445.44C792.414 446.293 792.947 447.52 792.947 449.12C792.947 450.72 792.414 451.947 791.347 452.8C790.334 453.653 788.814 454.08 786.787 454.08ZM816.626 500.88C813.853 500.88 811.586 500.453 809.826 499.6C808.119 498.693 806.786 497.547 805.826 496.16C804.919 494.72 804.306 493.2 803.986 491.6C803.666 489.947 803.506 488.373 803.506 486.88V466.32H798.626V459.52H799.826C802.386 459.253 804.199 458.453 805.266 457.12C806.386 455.733 807.053 453.68 807.266 450.96L807.426 448.96H813.586V458.24H823.826V466.56H813.586V486.08C813.586 488.267 814.093 489.787 815.106 490.64C816.119 491.493 817.373 491.92 818.866 491.92C819.666 491.92 820.519 491.813 821.426 491.6C822.333 491.333 823.133 490.96 823.826 490.48V499.68C822.439 500.107 821.159 500.4 819.986 500.56C818.813 500.773 817.693 500.88 816.626 500.88ZM831.878 500V458.24H842.038V500H831.878ZM836.918 454.08C834.892 454.08 833.345 453.653 832.278 452.8C831.265 451.947 830.758 450.72 830.758 449.12C830.758 447.467 831.292 446.213 832.358 445.36C833.425 444.507 834.945 444.08 836.918 444.08C838.945 444.08 840.465 444.533 841.478 445.44C842.545 446.293 843.078 447.52 843.078 449.12C843.078 450.72 842.545 451.947 841.478 452.8C840.465 453.653 838.945 454.08 836.918 454.08ZM870.757 501.12C867.131 501.12 864.011 500.587 861.397 499.52C858.837 498.4 856.731 496.88 855.077 494.96C853.424 492.987 852.197 490.72 851.397 488.16C850.651 485.6 850.277 482.8 850.277 479.76C850.277 476.72 850.651 473.84 851.397 471.12C852.197 468.4 853.397 466 854.997 463.92C856.651 461.787 858.704 460.133 861.157 458.96C863.664 457.733 866.624 457.12 870.037 457.12C873.291 457.12 876.117 457.68 878.517 458.8C880.971 459.92 882.944 461.52 884.437 463.6C885.984 465.627 887.024 468.053 887.557 470.88C888.144 473.653 888.224 476.72 887.797 480.08L856.597 480.56V474.56L880.197 474.16L878.517 477.6C878.731 475.04 878.544 472.853 877.957 471.04C877.424 469.227 876.491 467.84 875.157 466.88C873.877 465.867 872.171 465.36 870.037 465.36C867.744 465.36 865.851 465.947 864.357 467.12C862.917 468.293 861.851 469.92 861.157 472C860.464 474.08 860.117 476.533 860.117 479.36C860.117 484 861.024 487.493 862.837 489.84C864.651 492.133 867.344 493.28 870.917 493.28C872.624 493.28 874.037 493.04 875.157 492.56C876.277 492.08 877.157 491.413 877.797 490.56C878.491 489.707 878.944 488.773 879.157 487.76C879.424 486.693 879.531 485.627 879.477 484.56L888.837 485.12C888.944 487.147 888.677 489.12 888.037 491.04C887.397 492.907 886.357 494.613 884.917 496.16C883.477 497.653 881.584 498.853 879.237 499.76C876.891 500.667 874.064 501.12 870.757 501.12ZM914.137 501.12C911.417 501.12 908.884 500.827 906.537 500.24C904.244 499.707 902.244 498.827 900.537 497.6C898.831 496.373 897.524 494.747 896.617 492.72C895.764 490.64 895.444 488.16 895.657 485.28L904.617 484.48C904.617 486.667 905.017 488.427 905.817 489.76C906.617 491.093 907.737 492.053 909.177 492.64C910.671 493.227 912.431 493.52 914.457 493.52C916.857 493.52 918.777 493.12 920.217 492.32C921.711 491.52 922.457 490.32 922.457 488.72C922.457 487.6 922.111 486.72 921.417 486.08C920.777 485.44 919.737 484.907 918.297 484.48C916.911 484.053 915.124 483.6 912.937 483.12C910.484 482.533 908.217 481.947 906.137 481.36C904.057 480.773 902.244 480.027 900.697 479.12C899.151 478.213 897.951 477.067 897.097 475.68C896.297 474.24 895.897 472.453 895.897 470.32C895.897 467.6 896.617 465.253 898.057 463.28C899.551 461.307 901.577 459.787 904.137 458.72C906.751 457.653 909.791 457.12 913.257 457.12C916.404 457.12 919.311 457.627 921.977 458.64C924.697 459.653 926.831 461.28 928.377 463.52C929.924 465.76 930.537 468.693 930.217 472.32L921.417 473.28C921.577 471.413 921.284 469.84 920.537 468.56C919.844 467.28 918.804 466.347 917.417 465.76C916.084 465.12 914.511 464.8 912.697 464.8C910.457 464.8 908.671 465.253 907.337 466.16C906.057 467.013 905.417 468.16 905.417 469.6C905.417 470.773 905.817 471.733 906.617 472.48C907.417 473.173 908.564 473.733 910.057 474.16C911.604 474.533 913.444 474.96 915.577 475.44C917.391 475.76 919.257 476.187 921.177 476.72C923.151 477.253 924.964 478 926.617 478.96C928.271 479.867 929.604 481.093 930.617 482.64C931.631 484.187 932.137 486.16 932.137 488.56C932.137 491.12 931.417 493.333 929.977 495.2C928.591 497.067 926.564 498.533 923.897 499.6C921.231 500.613 917.977 501.12 914.137 501.12Z" fill="url(#paint2_linear_206_1589)"/>
<path d="M674.79 409.985L678.886 377.241C679.024 376.145 678.246 375.145 677.15 375.008L668.716 373.952C667.62 373.815 666.62 374.593 666.483 375.689L662.386 408.433M664.248 393.549L653.83 392.246C652.734 392.109 651.734 392.886 651.597 393.982L650.231 404.897C650.094 405.993 650.871 406.993 651.968 407.13L685.208 411.289C686.304 411.426 687.304 410.649 687.441 409.553L689.738 391.196C689.875 390.1 689.098 389.1 688.002 388.963L677.583 387.659" stroke="url(#paint3_linear_206_1589)" stroke-width="4" stroke-linecap="round" stroke-linejoin="round"/>
<path d="M419.148 462.03C419.938 466.096 417.282 470.033 413.215 470.822C409.149 471.612 405.213 468.956 404.423 464.89C403.634 460.824 406.29 456.887 410.356 456.098C414.422 455.308 418.358 457.964 419.148 462.03Z" stroke="url(#paint4_linear_206_1589)" stroke-width="4" stroke-linecap="round" stroke-linejoin="round"/>
<path d="M411.167 486.501C411.956 490.567 409.3 494.503 405.234 495.293C401.168 496.082 397.231 493.426 396.442 489.36C395.652 485.294 398.308 481.357 402.374 480.568C406.441 479.778 410.377 482.434 411.167 486.501Z" stroke="url(#paint5_linear_206_1589)" stroke-width="4" stroke-linecap="round" stroke-linejoin="round"/>
<path d="M435.708 481.735C436.498 485.801 433.842 489.737 429.775 490.527C425.709 491.317 421.773 488.66 420.983 484.594C420.194 480.528 422.85 476.592 426.916 475.802C430.982 475.012 434.918 477.669 435.708 481.735Z" stroke="url(#paint6_linear_206_1589)" stroke-width="4" stroke-linecap="round" stroke-linejoin="round"/>
<g opacity="0.1">
<rect x="334" y="1.2627" width="232.867" height="864.935" fill="url(#paint7_linear_206_1589)"/>
<path d="M334 1.2627L659.944 1.26286L994.139 866.197L680.573 866.197L334 1.2627Z" fill="url(#paint8_linear_206_1589)"/>
<rect x="1099.14" y="1.2627" width="232.867" height="864.935" fill="url(#paint9_linear_206_1589)"/>
<path d="M1332.01 1.26488L1007.9 1.26485L679.203 866.199L992.769 865.573L1332.01 1.26488Z" fill="url(#paint10_linear_206_1589)"/>
</g>
</g>
<defs>
<filter id="filter0_f_206_1589" x="-337" y="556" width="1874" height="948" filterUnits="userSpaceOnUse" color-interpolation-filters="sRGB">
<feFlood flood-opacity="0" result="BackgroundImageFix"/>
<feBlend mode="normal" in="SourceGraphic" in2="BackgroundImageFix" result="shape"/>
<feGaussianBlur stdDeviation="150" result="effect1_foregroundBlur_206_1589"/>
</filter>
<filter id="filter1_f_206_1589" x="-113" y="541" width="1396" height="948" filterUnits="userSpaceOnUse" color-interpolation-filters="sRGB">
<feFlood flood-opacity="0" result="BackgroundImageFix"/>
<feBlend mode="normal" in="SourceGraphic" in2="BackgroundImageFix" result="shape"/>
<feGaussianBlur stdDeviation="150" result="effect1_foregroundBlur_206_1589"/>
</filter>
<linearGradient id="paint0_linear_206_1589" x1="585" y1="810" x2="585" y2="1147" gradientUnits="userSpaceOnUse">
<stop stop-color="#6D2AC0"/>
<stop offset="1" stop-color="#FFBCA7"/>
</linearGradient>
<linearGradient id="paint1_linear_206_1589" x1="283" y1="325.75" x2="893.585" y2="533.275" gradientUnits="userSpaceOnUse">
<stop stop-color="#8857FF"/>
<stop offset="1" stop-color="#FFBCA7"/>
</linearGradient>
<linearGradient id="paint2_linear_206_1589" x1="599.5" y1="434" x2="599.5" y2="514" gradientUnits="userSpaceOnUse">
<stop stop-color="white"/>
<stop offset="1" stop-color="#CABEE8"/>
</linearGradient>
<linearGradient id="paint3_linear_206_1589" x1="672.933" y1="374.48" x2="668.588" y2="409.209" gradientUnits="userSpaceOnUse">
<stop stop-color="#D598C7"/>
<stop offset="1" stop-color="#D89BC4"/>
</linearGradient>
<linearGradient id="paint4_linear_206_1589" x1="410.356" y1="456.098" x2="417.505" y2="492.91" gradientUnits="userSpaceOnUse">
<stop stop-color="white"/>
<stop offset="1" stop-color="#9887C5"/>
</linearGradient>
<linearGradient id="paint5_linear_206_1589" x1="410.356" y1="456.098" x2="417.505" y2="492.91" gradientUnits="userSpaceOnUse">
<stop stop-color="white"/>
<stop offset="1" stop-color="#9887C5"/>
</linearGradient>
<linearGradient id="paint6_linear_206_1589" x1="410.356" y1="456.098" x2="417.505" y2="492.91" gradientUnits="userSpaceOnUse">
<stop stop-color="white"/>
<stop offset="1" stop-color="#9887C5"/>
</linearGradient>
<linearGradient id="paint7_linear_206_1589" x1="450.434" y1="1.2627" x2="450.434" y2="866.198" gradientUnits="userSpaceOnUse">
<stop stop-color="#F7F4FF"/>
<stop offset="1" stop-color="#DED9E9"/>
</linearGradient>
<linearGradient id="paint8_linear_206_1589" x1="482.34" y1="-38.3894" x2="861.051" y2="901.798" gradientUnits="userSpaceOnUse">
<stop stop-color="#C99874"/>
<stop offset="1" stop-color="#323ED0"/>
</linearGradient>
<linearGradient id="paint9_linear_206_1589" x1="1215.57" y1="1.2627" x2="1215.57" y2="866.198" gradientUnits="userSpaceOnUse">
<stop stop-color="#434EDE"/>
<stop offset="1" stop-color="#BB936F"/>
</linearGradient>
<linearGradient id="paint10_linear_206_1589" x1="1193.2" y1="-54.6458" x2="802.308" y2="915.786" gradientUnits="userSpaceOnUse">
<stop stop-color="#F7F4FF"/>
<stop offset="1" stop-color="#DED9E9"/>
</linearGradient>
<clipPath id="clip0_206_1589">
<rect width="1200" height="800" rx="15" fill="white"/>
</clipPath>
</defs>
</svg>
